<svg width="149" height="42" viewBox="0 0 149 42" fill="none" xmlns="http://www.w3.org/2000/svg">
<g filter="url(#filter0_d)">
<path d="M24.925 2.65952C24.2627 2.88073 23.7253 3.37235 23.446 4.01236C16.6498 2.78203 9.90124 6.39399 7.15542 12.7314C6.26485 12.3538 5.23182 12.6749 4.71222 13.4908C4.19261 14.3067 4.33854 15.3786 5.05734 16.0259C5.36878 16.2902 5.70306 16.5262 6.05626 16.7313C5.39783 21.7373 7.3232 26.7356 11.1698 30.0062C15.0164 33.2768 20.2593 34.3734 25.0942 32.9185C25.2269 32.8788 25.3585 32.8373 25.49 32.7937C28.0733 31.9432 30.3729 30.3982 32.1369 28.3281C32.4353 27.9808 32.4574 27.4745 32.1904 27.1025C31.9234 26.7305 31.4366 26.5895 31.0121 26.761C30.8019 26.8447 30.5876 26.9236 30.3694 26.9958C26.7911 28.1747 22.8578 27.4272 19.9614 25.0177C20.2211 24.6655 20.429 24.2778 20.5788 23.8666C20.7313 23.458 20.6967 23.0031 20.4841 22.6223C20.2748 22.2456 19.9106 21.9797 19.4879 21.8951C18.5317 21.6521 17.6245 21.246 16.8063 20.6946C16.7265 20.4993 16.6491 20.2939 16.5727 20.063C16.3563 19.4078 16.2044 18.7331 16.1189 18.0485C16.3213 18.006 16.5257 17.9619 16.7333 17.9114C16.7876 17.8987 16.8405 17.8832 16.8923 17.8661C17.8681 17.5367 18.433 16.519 18.1966 15.5166C17.993 14.6508 17.2317 14.0307 16.3426 14.0065C17.2426 10.3676 19.9471 7.44515 23.5054 6.26627L23.5525 6.25067C24.2026 7.38313 25.6191 7.81801 26.7927 7.24542C27.9662 6.67284 28.4952 5.28872 28.0027 4.07938C27.5102 2.87004 26.1647 2.24931 24.925 2.65952ZM15.5333 20.0501C15.4362 20.0763 15.3498 20.1322 15.2861 20.2099C15.1173 20.4256 15.1552 20.7374 15.3709 20.9064C15.4539 20.9709 17.4126 22.494 19.2931 22.8682C19.4311 22.8953 19.5498 22.9825 19.617 23.106C19.6877 23.2326 19.6996 23.3837 19.6495 23.5198C19.421 24.2862 18.8654 24.9124 18.1316 25.2305C17.9645 25.29 17.8419 25.4342 17.8099 25.6086C17.7779 25.783 17.8414 25.9613 17.9765 26.0762C18.1116 26.1911 18.2977 26.2253 18.4648 26.1657L18.4865 26.1586C18.763 26.0505 19.023 25.9044 19.2592 25.7244C20.4609 26.7393 21.8519 27.5058 23.3517 27.9796C21.9022 29.175 19.8861 29.4085 18.2017 28.5761C17.9605 28.4456 17.6593 28.5353 17.5288 28.7764C17.3983 29.0176 17.488 29.3188 17.7291 29.4493C19.1069 30.1066 20.6814 30.2221 22.1403 29.7729C23.0302 29.4682 23.8353 28.9575 24.4901 28.2823C26.548 28.7171 28.6844 28.5984 30.6814 27.9381C30.917 27.8601 31.1524 27.7737 31.3817 27.6847C27.4326 32.314 20.9306 33.8348 15.338 31.4372C9.74541 29.0397 6.3638 23.2817 6.99392 17.2296C9.54864 18.3686 12.3864 18.7147 15.14 18.2231C15.2218 18.8417 15.3533 19.4527 15.5333 20.0501Z" fill="#D0B3EE"/>
<path d="M10.2018 23.7409C10.2898 23.7615 10.3818 23.7572 10.4676 23.7288C10.6328 23.6741 10.7574 23.5368 10.7958 23.367C10.8726 23.0888 11.005 22.8291 11.185 22.6035C11.5544 22.1497 12.1654 21.9706 12.7214 22.1533C12.8952 22.1949 13.078 22.1398 13.1999 22.009C13.3217 21.8782 13.3639 21.692 13.3101 21.5215C13.2564 21.351 13.1152 21.2226 12.9403 21.1853C12.0173 20.9125 11.0209 21.224 10.4177 21.9741C10.1391 22.3184 9.93806 22.7188 9.82825 23.1479C9.76805 23.4148 9.93515 23.68 10.2018 23.7409Z" fill="#D0B3EE"/>
<path d="M30.6514 15.5325C30.8454 15.6596 31.0869 15.6912 31.307 15.618C31.6527 15.503 31.873 15.1644 31.8382 14.8018L31.6594 12.8221L33.1146 11.5331C33.3362 11.3368 33.4285 11.0325 33.3533 10.7462C33.2829 10.4643 33.0598 10.2461 32.7764 10.1818L30.945 9.76775L30.2427 7.94681C30.137 7.66708 29.8784 7.47427 29.5801 7.45282C29.2818 7.43137 28.9982 7.58518 28.8536 7.8469L27.8985 9.54904L26.0276 9.69801C25.7378 9.72117 25.4858 9.90574 25.3763 10.1751C25.2614 10.4475 25.3096 10.7615 25.5009 10.987L26.7568 12.4699L26.296 14.4051C26.2245 14.6973 26.3272 15.0046 26.5602 15.1949C26.7863 15.3816 27.0996 15.4217 27.3654 15.2979L29.0735 14.5091L30.6514 15.5325Z" fill="#D0B3EE"/>
<path d="M29.0177 18.1186C28.788 17.9802 28.5 17.9828 28.2729 18.1253L27.0724 18.8778L25.7239 18.2787C25.4721 18.1637 25.1764 18.2057 24.9666 18.3863C24.7568 18.5668 24.6713 18.853 24.7475 19.1191L25.1434 20.5406L24.2216 21.6169C24.0472 21.8205 24.0021 22.1049 24.105 22.3524C24.207 22.6047 24.4423 22.7781 24.7135 22.8008L26.1803 22.9267L26.9681 24.2133C27.1111 24.4506 27.378 24.5842 27.6537 24.5566C27.7068 24.5514 27.7593 24.5404 27.81 24.5237C28.0132 24.4566 28.1745 24.3002 28.2476 24.0991L28.742 22.7691L30.1302 22.4777C30.3956 22.4232 30.606 22.2207 30.6705 21.9575C30.7409 21.6878 30.6489 21.4017 30.4343 21.2238L29.2771 20.2551L29.3701 18.785C29.3869 18.5144 29.2509 18.2571 29.0177 18.1186Z" fill="#D0B3EE"/>
<path d="M50.328 7.64C50.5627 7.64 50.7547 7.72 50.904 7.88C51.0533 8.02933 51.128 8.22667 51.128 8.472V18.296C51.128 18.5413 51.0587 18.7333 50.92 18.872C50.792 19.0107 50.6107 19.08 50.376 19.08C50.152 19.08 49.976 19.0107 49.848 18.872C49.72 18.7333 49.656 18.5413 49.656 18.296V10.856L46.52 16.824C46.3173 17.1973 46.056 17.384 45.736 17.384C45.416 17.384 45.1547 17.1973 44.952 16.824L41.8 10.92V18.296C41.8 18.5413 41.736 18.7333 41.608 18.872C41.48 19.0107 41.2987 19.08 41.064 19.08C40.84 19.08 40.6587 19.0107 40.52 18.872C40.392 18.7227 40.328 18.5307 40.328 18.296V8.472C40.328 8.22667 40.4027 8.02933 40.552 7.88C40.7013 7.72 40.8933 7.64 41.128 7.64C41.4587 7.64 41.7253 7.832 41.928 8.216L45.752 15.528L49.544 8.216C49.7467 7.832 50.008 7.64 50.328 7.64ZM58.9331 19.128C57.8665 19.128 56.9385 18.8933 56.1491 18.424C55.3705 17.9547 54.7678 17.288 54.3411 16.424C53.9145 15.56 53.7011 14.5413 53.7011 13.368C53.7011 12.184 53.9091 11.16 54.3251 10.296C54.7518 9.42133 55.3598 8.75467 56.1491 8.296C56.9385 7.82667 57.8665 7.592 58.9331 7.592C60.0105 7.592 60.9438 7.82667 61.7331 8.296C62.5225 8.75467 63.1251 9.42133 63.5411 10.296C63.9678 11.16 64.1811 12.1787 64.1811 13.352C64.1811 14.5253 63.9678 15.5493 63.5411 16.424C63.1251 17.288 62.5225 17.9547 61.7331 18.424C60.9438 18.8933 60.0105 19.128 58.9331 19.128ZM58.9331 17.784C60.0638 17.784 60.9438 17.4 61.5731 16.632C62.2025 15.864 62.5171 14.7707 62.5171 13.352C62.5171 11.9333 62.2025 10.8453 61.5731 10.088C60.9545 9.32 60.0745 8.936 58.9331 8.936C57.8131 8.936 56.9385 9.32 56.3091 10.088C55.6905 10.8453 55.3811 11.9333 55.3811 13.352C55.3811 14.7707 55.6905 15.864 56.3091 16.632C56.9385 17.4 57.8131 17.784 58.9331 17.784ZM71.5969 19.128C70.5302 19.128 69.6022 18.8933 68.8129 18.424C68.0342 17.9547 67.4315 17.288 67.0049 16.424C66.5782 15.56 66.3649 14.5413 66.3649 13.368C66.3649 12.184 66.5729 11.16 66.9889 10.296C67.4155 9.42133 68.0235 8.75467 68.8129 8.296C69.6022 7.82667 70.5302 7.592 71.5969 7.592C72.6742 7.592 73.6075 7.82667 74.3969 8.296C75.1862 8.75467 75.7889 9.42133 76.2049 10.296C76.6315 11.16 76.8449 12.1787 76.8449 13.352C76.8449 14.5253 76.6315 15.5493 76.2049 16.424C75.7889 17.288 75.1862 17.9547 74.3969 18.424C73.6075 18.8933 72.6742 19.128 71.5969 19.128ZM71.5969 17.784C72.7275 17.784 73.6075 17.4 74.2369 16.632C74.8662 15.864 75.1809 14.7707 75.1809 13.352C75.1809 11.9333 74.8662 10.8453 74.2369 10.088C73.6182 9.32 72.7382 8.936 71.5969 8.936C70.4769 8.936 69.6022 9.32 68.9729 10.088C68.3542 10.8453 68.0449 11.9333 68.0449 13.352C68.0449 14.7707 68.3542 15.864 68.9729 16.632C69.6022 17.4 70.4769 17.784 71.5969 17.784ZM87.8926 7.64C88.1273 7.64 88.314 7.72 88.4526 7.88C88.602 8.02933 88.6766 8.22667 88.6766 8.472V18.248C88.6766 18.4933 88.602 18.696 88.4526 18.856C88.3033 19.0053 88.1113 19.08 87.8766 19.08C87.5993 19.08 87.386 18.9733 87.2366 18.76L80.9646 10.488V18.248C80.9646 18.4933 80.89 18.696 80.7406 18.856C80.602 19.0053 80.4153 19.08 80.1806 19.08C79.946 19.08 79.7593 19.0053 79.6206 18.856C79.482 18.7067 79.4126 18.504 79.4126 18.248V8.472C79.4126 8.22667 79.4873 8.02933 79.6366 7.88C79.786 7.72 79.978 7.64 80.2126 7.64C80.49 7.64 80.7033 7.74667 80.8526 7.96L87.1246 16.248V8.472C87.1246 8.22667 87.194 8.02933 87.3326 7.88C87.4713 7.72 87.658 7.64 87.8926 7.64ZM99.89 19.128C99.0793 19.128 98.306 19.016 97.57 18.792C96.8447 18.568 96.2633 18.2587 95.826 17.864C95.6233 17.6933 95.522 17.4747 95.522 17.208C95.522 17.016 95.5753 16.856 95.682 16.728C95.7887 16.5893 95.9167 16.52 96.066 16.52C96.2153 16.52 96.3967 16.5893 96.61 16.728C97.5593 17.432 98.642 17.784 99.858 17.784C100.711 17.784 101.367 17.624 101.826 17.304C102.285 16.984 102.514 16.5253 102.514 15.928C102.514 15.4587 102.301 15.1067 101.874 14.872C101.447 14.6373 100.765 14.4133 99.826 14.2C98.93 14.008 98.194 13.7893 97.618 13.544C97.042 13.2987 96.5887 12.968 96.258 12.552C95.938 12.1253 95.778 11.5867 95.778 10.936C95.778 10.2853 95.954 9.70933 96.306 9.208C96.6687 8.696 97.17 8.30133 97.81 8.024C98.45 7.736 99.1807 7.592 100.002 7.592C100.759 7.592 101.458 7.69867 102.098 7.912C102.738 8.12533 103.282 8.44 103.73 8.856C103.943 9.03733 104.05 9.256 104.05 9.512C104.05 9.69333 103.991 9.85333 103.874 9.992C103.767 10.1307 103.639 10.2 103.49 10.2C103.351 10.2 103.175 10.1307 102.962 9.992C102.471 9.61867 102.007 9.352 101.57 9.192C101.143 9.02133 100.626 8.936 100.018 8.936C99.1967 8.936 98.5567 9.10667 98.098 9.448C97.6393 9.77867 97.41 10.2427 97.41 10.84C97.41 11.352 97.6127 11.7413 98.018 12.008C98.4233 12.264 99.074 12.4987 99.97 12.712C100.909 12.9253 101.666 13.1493 102.242 13.384C102.829 13.608 103.293 13.9227 103.634 14.328C103.986 14.7227 104.162 15.2347 104.162 15.864C104.162 16.504 103.981 17.0747 103.618 17.576C103.266 18.0667 102.765 18.4507 102.114 18.728C101.474 18.9947 100.733 19.128 99.89 19.128ZM109.799 19.08C109.554 19.08 109.351 19.0053 109.191 18.856C109.042 18.696 108.967 18.4933 108.967 18.248V9.096H105.767C105.255 9.096 104.999 8.86667 104.999 8.408C104.999 8.184 105.063 8.01333 105.191 7.896C105.33 7.77867 105.522 7.72 105.767 7.72H113.831C114.076 7.72 114.263 7.77867 114.391 7.896C114.53 8.01333 114.599 8.184 114.599 8.408C114.599 8.86667 114.343 9.096 113.831 9.096H110.631V18.248C110.631 18.4933 110.556 18.696 110.407 18.856C110.258 19.0053 110.055 19.08 109.799 19.08ZM124.879 18.04C124.932 18.168 124.959 18.2747 124.959 18.36C124.959 18.5627 124.874 18.7333 124.703 18.872C124.543 19.0107 124.362 19.08 124.159 19.08C124.02 19.08 123.887 19.0427 123.759 18.968C123.642 18.8827 123.551 18.7653 123.487 18.616L122.431 16.216H116.575L115.519 18.616C115.455 18.7653 115.359 18.8827 115.231 18.968C115.103 19.0427 114.97 19.08 114.831 19.08C114.618 19.08 114.426 19.0107 114.255 18.872C114.095 18.7333 114.015 18.5627 114.015 18.36C114.015 18.2747 114.042 18.168 114.095 18.04L118.607 8.168C118.682 7.99733 118.799 7.864 118.959 7.768C119.13 7.672 119.306 7.624 119.487 7.624C119.668 7.624 119.839 7.672 119.999 7.768C120.17 7.864 120.292 7.99733 120.367 8.168L124.879 18.04ZM121.855 14.904L119.503 9.608L117.167 14.904H121.855ZM135.797 17.976C135.893 18.1147 135.941 18.264 135.941 18.424C135.941 18.616 135.861 18.7813 135.701 18.92C135.552 19.048 135.376 19.112 135.173 19.112C134.874 19.112 134.634 18.9787 134.453 18.712L132.309 15.384C132.064 15 131.802 14.7333 131.525 14.584C131.248 14.424 130.885 14.344 130.437 14.344H128.629V18.248C128.629 18.504 128.554 18.7067 128.405 18.856C128.266 19.0053 128.069 19.08 127.813 19.08C127.568 19.08 127.37 19.0053 127.221 18.856C127.072 18.7067 126.997 18.504 126.997 18.248V8.52C126.997 8.27467 127.066 8.08267 127.205 7.944C127.354 7.79467 127.557 7.72 127.813 7.72H131.797C133.045 7.72 133.994 7.99733 134.645 8.552C135.306 9.10667 135.637 9.91733 135.637 10.984C135.637 11.8693 135.386 12.5893 134.885 13.144C134.384 13.688 133.669 14.0347 132.741 14.184C133.018 14.2587 133.269 14.392 133.493 14.584C133.717 14.776 133.936 15.0427 134.149 15.384L135.797 17.976ZM131.605 13.016C132.437 13.016 133.05 12.856 133.445 12.536C133.85 12.2053 134.053 11.6987 134.053 11.016C134.053 10.3333 133.856 9.83733 133.461 9.528C133.066 9.208 132.448 9.048 131.605 9.048H128.613V13.016H131.605Z" fill="#D0B3EE"/>
<path d="M57.52 31.064C57.1147 31.064 56.728 31.008 56.36 30.896C55.9973 30.784 55.7067 30.6293 55.488 30.432C55.3867 30.3467 55.336 30.2373 55.336 30.104C55.336 30.008 55.3627 29.928 55.416 29.864C55.4693 29.7947 55.5333 29.76 55.608 29.76C55.6827 29.76 55.7733 29.7947 55.88 29.864C56.3547 30.216 56.896 30.392 57.504 30.392C57.9307 30.392 58.2587 30.312 58.488 30.152C58.7173 29.992 58.832 29.7627 58.832 29.464C58.832 29.2293 58.7253 29.0533 58.512 28.936C58.2987 28.8187 57.9573 28.7067 57.488 28.6C57.04 28.504 56.672 28.3947 56.384 28.272C56.096 28.1493 55.8693 27.984 55.704 27.776C55.544 27.5627 55.464 27.2933 55.464 26.968C55.464 26.6427 55.552 26.3547 55.728 26.104C55.9093 25.848 56.16 25.6507 56.48 25.512C56.8 25.368 57.1653 25.296 57.576 25.296C57.9547 25.296 58.304 25.3493 58.624 25.456C58.944 25.5627 59.216 25.72 59.44 25.928C59.5467 26.0187 59.6 26.128 59.6 26.256C59.6 26.3467 59.5707 26.4267 59.512 26.496C59.4587 26.5653 59.3947 26.6 59.32 26.6C59.2507 26.6 59.1627 26.5653 59.056 26.496C58.8107 26.3093 58.5787 26.176 58.36 26.096C58.1467 26.0107 57.888 25.968 57.584 25.968C57.1733 25.968 56.8533 26.0533 56.624 26.224C56.3947 26.3893 56.28 26.6213 56.28 26.92C56.28 27.176 56.3813 27.3707 56.584 27.504C56.7867 27.632 57.112 27.7493 57.56 27.856C58.0293 27.9627 58.408 28.0747 58.696 28.192C58.9893 28.304 59.2213 28.4613 59.392 28.664C59.568 28.8613 59.656 29.1173 59.656 29.432C59.656 29.752 59.5653 30.0373 59.384 30.288C59.208 30.5333 58.9573 30.7253 58.632 30.864C58.312 30.9973 57.9413 31.064 57.52 31.064ZM69.3144 31.04C69.1918 31.04 69.0904 31.0027 69.0104 30.928C68.9358 30.848 68.8984 30.7467 68.8984 30.624V26.048H67.2984C67.0424 26.048 66.9144 25.9333 66.9144 25.704C66.9144 25.592 66.9464 25.5067 67.0104 25.448C67.0798 25.3893 67.1758 25.36 67.2984 25.36H71.3304C71.4531 25.36 71.5464 25.3893 71.6104 25.448C71.6798 25.5067 71.7144 25.592 71.7144 25.704C71.7144 25.9333 71.5864 26.048 71.3304 26.048H69.7304V30.624C69.7304 30.7467 69.6931 30.848 69.6184 30.928C69.5438 31.0027 69.4424 31.04 69.3144 31.04ZM81.6542 31.064C80.9022 31.064 80.3315 30.8693 79.9422 30.48C79.5529 30.0907 79.3582 29.5173 79.3582 28.76V25.736C79.3582 25.608 79.3955 25.5067 79.4702 25.432C79.5449 25.3573 79.6435 25.32 79.7662 25.32C79.8889 25.32 79.9875 25.3573 80.0622 25.432C80.1369 25.5067 80.1742 25.608 80.1742 25.736V28.816C80.1742 29.3333 80.2969 29.7253 80.5422 29.992C80.7929 30.2587 81.1635 30.392 81.6542 30.392C82.1395 30.392 82.5075 30.2587 82.7582 29.992C83.0089 29.7253 83.1342 29.3333 83.1342 28.816V25.736C83.1342 25.6133 83.1715 25.5147 83.2462 25.44C83.3209 25.36 83.4195 25.32 83.5422 25.32C83.6649 25.32 83.7635 25.3573 83.8382 25.432C83.9129 25.5067 83.9502 25.608 83.9502 25.736V28.76C83.9502 29.512 83.7529 30.0853 83.3582 30.48C82.9689 30.8693 82.4009 31.064 81.6542 31.064ZM92.6265 31C92.4985 31 92.3972 30.9653 92.3225 30.896C92.2532 30.8213 92.2185 30.7227 92.2185 30.6V25.76C92.2185 25.6373 92.2532 25.5413 92.3225 25.472C92.3972 25.3973 92.4985 25.36 92.6265 25.36H94.1945C95.1065 25.36 95.8132 25.6053 96.3145 26.096C96.8158 26.5867 97.0665 27.28 97.0665 28.176C97.0665 29.072 96.8158 29.768 96.3145 30.264C95.8132 30.7547 95.1065 31 94.1945 31H92.6265ZM94.1465 30.312C95.5332 30.312 96.2265 29.6 96.2265 28.176C96.2265 26.7573 95.5332 26.048 94.1465 26.048H93.0425V30.312H94.1465ZM105.595 31.04C105.473 31.04 105.374 31.0027 105.299 30.928C105.225 30.8533 105.187 30.752 105.187 30.624V25.736C105.187 25.6133 105.225 25.5147 105.299 25.44C105.374 25.36 105.473 25.32 105.595 25.32C105.723 25.32 105.825 25.3573 105.899 25.432C105.974 25.5067 106.011 25.608 106.011 25.736V30.624C106.011 30.752 105.974 30.8533 105.899 30.928C105.83 31.0027 105.729 31.04 105.595 31.04ZM116.744 31.064C116.211 31.064 115.747 30.9467 115.352 30.712C114.963 30.4773 114.661 30.144 114.448 29.712C114.235 29.28 114.128 28.7707 114.128 28.184C114.128 27.592 114.232 27.08 114.44 26.648C114.653 26.2107 114.957 25.8773 115.352 25.648C115.747 25.4133 116.211 25.296 116.744 25.296C117.283 25.296 117.749 25.4133 118.144 25.648C118.539 25.8773 118.84 26.2107 119.048 26.648C119.261 27.08 119.368 27.5893 119.368 28.176C119.368 28.7627 119.261 29.2747 119.048 29.712C118.84 30.144 118.539 30.4773 118.144 30.712C117.749 30.9467 117.283 31.064 116.744 31.064ZM116.744 30.392C117.309 30.392 117.749 30.2 118.064 29.816C118.379 29.432 118.536 28.8853 118.536 28.176C118.536 27.4667 118.379 26.9227 118.064 26.544C117.755 26.16 117.315 25.968 116.744 25.968C116.184 25.968 115.747 26.16 115.432 26.544C115.123 26.9227 114.968 27.4667 114.968 28.176C114.968 28.8853 115.123 29.432 115.432 29.816C115.747 30.2 116.184 30.392 116.744 30.392Z" fill="#D0B3EE"/>
</g>
<g filter="url(#filter1_d)">
<path d="M137.865 5.99404C137.727 5.99404 137.614 5.95493 137.527 5.87672C137.443 5.79851 137.402 5.69423 137.402 5.56387V2.73706H136.44C136.147 2.73706 136 2.61788 136 2.37951C136 2.14488 136.147 2.02756 136.44 2.02756H139.291C139.584 2.02756 139.731 2.14488 139.731 2.37951C139.731 2.61788 139.584 2.73706 139.291 2.73706H138.329V5.56387C138.329 5.69423 138.287 5.79851 138.204 5.87672C138.121 5.95493 138.008 5.99404 137.865 5.99404Z" fill="#D0B3EE"/>
<path d="M144.207 1.99438C144.337 1.99438 144.442 2.03535 144.522 2.11729C144.605 2.1955 144.646 2.29792 144.646 2.42455V5.59774C144.646 5.72064 144.609 5.81748 144.533 5.88824C144.458 5.959 144.359 5.99438 144.236 5.99438C144.118 5.99438 144.021 5.959 143.945 5.88824C143.87 5.81748 143.833 5.72064 143.833 5.59774V3.62567L142.989 5.11729C142.934 5.21412 142.872 5.28489 142.805 5.32958C142.741 5.37427 142.664 5.39662 142.573 5.39662C142.486 5.39662 142.409 5.37427 142.341 5.32958C142.274 5.28489 142.213 5.21412 142.157 5.11729L141.314 3.6536V5.59774C141.314 5.71692 141.276 5.81375 141.201 5.88824C141.126 5.959 141.027 5.99438 140.904 5.99438C140.785 5.99438 140.688 5.959 140.613 5.88824C140.538 5.81748 140.5 5.72064 140.5 5.59774V2.42455C140.5 2.29792 140.54 2.1955 140.619 2.11729C140.702 2.03535 140.809 1.99438 140.94 1.99438C141.13 1.99438 141.274 2.08936 141.373 2.2793L142.579 4.43014L143.779 2.2793C143.886 2.08936 144.029 1.99438 144.207 1.99438Z" fill="#D0B3EE"/>
</g>
<defs>
<filter id="filter0_d" x="0.402222" y="2.53345" width="139.539" height="39.0164" filterUnits="userSpaceOnUse" color-interpolation-filters="sRGB">
<feFlood flood-opacity="0" result="BackgroundImageFix"/>
<feColorMatrix in="SourceAlpha" type="matrix" values="0 0 0 0 0 0 0 0 0 0 0 0 0 0 0 0 0 0 127 0"/>
<feOffset dy="4"/>
<feGaussianBlur stdDeviation="2"/>
<feColorMatrix type="matrix" values="0 0 0 0 0 0 0 0 0 0 0 0 0 0 0 0 0 0 0.25 0"/>
<feBlend mode="normal" in2="BackgroundImageFix" result="effect1_dropShadow"/>
<feBlend mode="normal" in="SourceGraphic" in2="effect1_dropShadow" result="shape"/>
</filter>
<filter id="filter1_d" x="132" y="1.99438" width="16.6463" height="12" filterUnits="userSpaceOnUse" color-interpolation-filters="sRGB">
<feFlood flood-opacity="0" result="BackgroundImageFix"/>
<feColorMatrix in="SourceAlpha" type="matrix" values="0 0 0 0 0 0 0 0 0 0 0 0 0 0 0 0 0 0 127 0"/>
<feOffset dy="4"/>
<feGaussianBlur stdDeviation="2"/>
<feColorMatrix type="matrix" values="0 0 0 0 0 0 0 0 0 0 0 0 0 0 0 0 0 0 0.25 0"/>
<feBlend mode="normal" in2="BackgroundImageFix" result="effect1_dropShadow"/>
<feBlend mode="normal" in="SourceGraphic" in2="effect1_dropShadow" result="shape"/>
</filter>
</defs>
</svg>
