<svg width="90" height="53" viewBox="0 0 90 53" fill="none" xmlns="http://www.w3.org/2000/svg">
<g filter="url(#filter0_d)">
<mask id="path-1-outside-1" maskUnits="userSpaceOnUse" x="4" y="3.62793" width="82" height="45" fill="black">
<rect fill="white" x="4" y="3.62793" width="82" height="45"/>
<path d="M10.6134 34.9752C10.6134 35.5015 11.1396 35.8962 11.622 35.8962C11.7974 35.8962 11.8852 35.8523 12.0167 35.8085C15.7882 34.756 16.446 30.1951 16.7091 24.494C18.4633 24.3624 20.0859 23.4415 21.6208 22.2136C21.884 22.5644 22.1471 23.003 22.4541 23.3976L23.1119 24.494C26.6641 30.0197 31.6635 38.9221 37.4962 38.9221C38.5048 38.9221 39.8643 38.8344 39.8643 37.5188C39.8643 36.9925 39.4696 36.9048 39.0749 36.9048C38.7679 36.9048 38.3294 37.0364 37.54 37.0364C32.7599 37.0364 28.0236 28.6163 24.7784 23.4415C24.4714 22.9152 23.375 21.4242 22.9803 20.9856C24.9538 19.0122 26.8395 16.5563 28.3306 14.4952C29.2515 13.2234 30.2602 12.1709 30.8741 11.5131C31.7074 10.636 32.8037 9.89047 33.33 9.89047C33.8562 9.89047 34.2948 9.53963 34.2948 8.96952C34.2948 8.44327 33.8562 8.04858 33.33 8.04858C31.9705 8.04858 30.3917 9.14494 29.4708 10.1536C28.7691 10.943 27.9359 11.8639 26.7957 13.355C25.3485 15.2407 23.6381 17.8281 21.7086 19.67C20.1298 18.2667 18.5949 17.3457 16.753 17.1703C16.753 16.0739 16.7969 14.7145 16.8846 13.662C20.8753 12.5656 23.3312 10.1536 23.3312 7.65389C23.3312 6.07513 22.3225 4.62793 20.4368 4.62793C18.1563 4.62793 15.7882 6.64524 15.1304 12.2586C14.2533 12.434 13.3324 12.5217 12.3237 12.5217C9.16617 12.5217 7.06116 10.7676 6.9296 8.18014C6.88574 7.65389 6.49105 7.30305 5.9648 7.30305C5.43854 7.30305 5 7.69774 5 8.26785C5 10.5483 6.88574 14.2759 12.3237 14.2759C13.2446 14.2759 14.1217 14.2321 14.955 14.1005C14.9111 15.0214 14.8673 16.0739 14.8234 17.3019C12.8938 17.7843 11.2712 19.1876 11.2712 20.8541C11.2712 22.2136 11.9729 23.88 14.7795 24.3624C14.5164 30.8529 13.5078 33.2649 11.2712 34.1858C10.8765 34.3174 10.6134 34.5805 10.6134 34.9752ZM13.2008 20.8541C13.2008 20.1963 13.9025 19.4069 14.7795 19.1876C14.7795 19.67 14.7357 22.1259 14.7357 22.5644C13.7709 22.389 13.2008 21.8627 13.2008 20.8541ZM16.753 18.9683C17.9809 19.0999 19.3843 19.8016 20.4368 20.9418C19.2966 21.9066 17.8494 22.6521 16.6653 22.696C16.6653 22.0382 16.7091 21.1172 16.7091 20.4594L16.753 18.9683ZM20.3929 6.38211C21.0946 6.38211 21.4016 6.95222 21.4016 7.65389C21.4016 9.10109 19.6474 10.8114 17.06 11.7324C17.6301 8.35556 18.9457 6.38211 20.3929 6.38211Z"/>
<path d="M39.731 19.7577C39.2048 19.6262 38.6347 19.9331 38.547 20.4594C37.2313 25.6781 36.5735 33.3088 36.5735 33.8789C36.5735 34.449 37.012 34.8875 37.5822 34.8875C38.1084 34.8875 38.5031 34.4928 38.547 33.9666C38.8101 29.8004 39.6433 24.0993 40.4327 20.9418C40.4766 20.8541 40.4766 20.7664 40.4766 20.7225C40.4766 20.284 40.1696 19.8893 39.731 19.7577Z"/>
<path d="M48.4649 34.6682C49.7806 34.6682 50.9208 34.142 51.8856 33.1772C54.8677 30.1951 55.8763 23.2661 55.964 17.6527C56.578 17.7843 57.1481 17.8281 57.6744 17.8281C57.9813 17.8281 58.4637 17.3896 58.4637 16.9072C58.4637 16.3809 58.1568 16.1178 57.6305 16.0301C57.0604 15.9862 56.4903 15.8985 56.0079 15.8108C56.0517 14.8899 55.8763 9.80276 53.5959 7.61003C52.8504 6.86451 51.9294 6.51367 51.0523 6.51367C48.8158 6.51367 47.5001 8.57483 47.5001 10.5044C47.5001 13.662 50.3507 16.3809 54.0344 17.3457C53.9467 25.3272 52.1925 32.8702 48.5088 32.8702C46.7107 32.8702 45.5267 30.8091 45.5267 27.8269C45.5267 24.5817 47.237 21.2926 49.5174 21.2926C50.1752 21.2926 50.7454 21.5996 50.9646 21.9504C51.14 22.2574 51.4909 22.4328 51.7979 22.4328C52.3241 22.4328 52.7627 21.9943 52.7627 21.468C52.7627 20.6348 51.3593 19.3192 49.5174 19.3192C45.8775 19.3192 43.5971 23.7485 43.5971 27.8269C43.5971 32.037 45.7459 34.6682 48.4649 34.6682ZM50.9646 8.35556C52.1048 8.35556 54.0783 10.1536 54.0783 15.4161C51.447 14.7145 49.4736 12.6533 49.4736 10.4606C49.4736 9.58349 49.956 8.35556 50.9646 8.35556Z"/>
<path d="M67.4909 19.7577C67.2716 19.8893 66.7892 19.977 66.1753 19.977C65.8244 19.977 64.8158 19.8454 63.8071 19.7139C62.7985 19.5823 61.8337 19.4507 61.4828 19.4507C59.2024 19.4507 58.5007 20.9418 58.5007 21.3803C58.5007 21.9066 58.9831 22.3451 59.5094 22.3451C59.8602 22.3451 60.2111 22.1697 60.3865 21.775C60.518 21.5119 60.6935 21.2926 61.4828 21.2926C62.1407 21.2926 65.3859 21.7312 66.263 21.7312C65.2543 22.8714 63.8071 24.5817 62.93 25.8096C61.4828 27.8708 60.0356 29.8881 57.4044 32.6071C57.2728 32.7825 57.1851 33.0018 57.1851 33.3088C57.1851 33.7912 57.6236 34.2297 58.1499 34.2297C58.3253 34.2297 58.4569 34.2297 58.5007 34.1858C59.5971 33.835 60.6058 33.7034 61.6144 33.7034C62.8423 33.7034 63.9825 33.9227 65.0789 34.142C65.956 34.2736 66.7892 34.449 67.5786 34.449C69.5082 34.449 70.9116 33.4403 70.9116 31.5546C70.9116 31.0722 70.78 30.1512 69.8152 30.3705C69.2889 30.4144 68.982 30.8091 68.982 31.3353C68.982 32.1685 68.9381 32.6509 67.5786 32.6509C66.9647 32.6509 66.2191 32.5194 65.3859 32.344C64.0264 32.0808 61.6583 31.8616 60.0356 32.1685C61.0004 31.2476 63.3686 28.4409 64.4649 26.906C65.7367 25.108 67.0524 23.3099 69.1135 21.0734C69.2451 20.8541 69.3328 20.6348 69.3328 20.3717C69.3328 20.2401 69.2889 19.4069 68.2364 19.4069C67.9733 19.4069 67.754 19.4946 67.6225 19.6262L67.4909 19.7577Z"/>
<path d="M76.2152 20.5032C76.2152 19.9331 75.7767 19.4946 75.2504 19.4946C74.4172 19.4946 74.2856 20.1963 74.1979 20.5032C73.8909 22.1259 73.2331 25.4588 73.2331 28.4848C73.2331 31.5546 74.154 34.4928 76.873 34.4928C79.0219 34.4928 81.3462 31.9493 82.4425 28.8795C82.1794 31.5546 81.5216 35.1068 80.8199 37.2995C80.0305 37.0364 79.0219 36.9048 78.0132 36.9048C73.4085 36.9048 67.7513 39.7554 67.7513 44.2724C67.7513 46.9475 69.6809 48 71.8298 48C75.7328 48 80.0305 44.8425 81.9601 39.8869C82.3548 40.0623 83.3196 40.7202 83.3196 41.9481C83.3196 42.4743 83.7143 42.9129 84.2406 42.9129C84.7668 42.9129 85.2054 42.4743 85.2054 41.9481C85.2054 40.2816 84.109 38.8344 82.6618 38.0012C83.802 34.2297 84.109 30.6336 84.2406 28.7917C84.3721 26.7306 84.6791 22.4328 84.6791 20.4594C84.6791 19.9331 84.3283 19.4946 83.802 19.4946C83.2758 19.4946 82.7934 19.8893 82.7934 20.4155C82.8372 25.7219 79.5481 32.5632 76.873 32.5632C75.382 32.5632 75.2066 29.7565 75.2066 28.4848C75.2066 25.6781 75.8205 22.5644 76.1713 20.6787L76.2152 20.5032ZM72.0929 46.202C70.9088 46.202 69.7247 45.5442 69.7247 44.1408C69.7247 41.0271 74.3733 38.7029 78.0132 38.7029C78.7588 38.7029 79.6797 38.7906 80.2937 38.966C78.5833 43.3514 75.1188 46.202 72.0929 46.202Z"/>
</mask>
<path d="M10.6134 34.9752C10.6134 35.5015 11.1396 35.8962 11.622 35.8962C11.7974 35.8962 11.8852 35.8523 12.0167 35.8085C15.7882 34.756 16.446 30.1951 16.7091 24.494C18.4633 24.3624 20.0859 23.4415 21.6208 22.2136C21.884 22.5644 22.1471 23.003 22.4541 23.3976L23.1119 24.494C26.6641 30.0197 31.6635 38.9221 37.4962 38.9221C38.5048 38.9221 39.8643 38.8344 39.8643 37.5188C39.8643 36.9925 39.4696 36.9048 39.0749 36.9048C38.7679 36.9048 38.3294 37.0364 37.54 37.0364C32.7599 37.0364 28.0236 28.6163 24.7784 23.4415C24.4714 22.9152 23.375 21.4242 22.9803 20.9856C24.9538 19.0122 26.8395 16.5563 28.3306 14.4952C29.2515 13.2234 30.2602 12.1709 30.8741 11.5131C31.7074 10.636 32.8037 9.89047 33.33 9.89047C33.8562 9.89047 34.2948 9.53963 34.2948 8.96952C34.2948 8.44327 33.8562 8.04858 33.33 8.04858C31.9705 8.04858 30.3917 9.14494 29.4708 10.1536C28.7691 10.943 27.9359 11.8639 26.7957 13.355C25.3485 15.2407 23.6381 17.8281 21.7086 19.67C20.1298 18.2667 18.5949 17.3457 16.753 17.1703C16.753 16.0739 16.7969 14.7145 16.8846 13.662C20.8753 12.5656 23.3312 10.1536 23.3312 7.65389C23.3312 6.07513 22.3225 4.62793 20.4368 4.62793C18.1563 4.62793 15.7882 6.64524 15.1304 12.2586C14.2533 12.434 13.3324 12.5217 12.3237 12.5217C9.16617 12.5217 7.06116 10.7676 6.9296 8.18014C6.88574 7.65389 6.49105 7.30305 5.9648 7.30305C5.43854 7.30305 5 7.69774 5 8.26785C5 10.5483 6.88574 14.2759 12.3237 14.2759C13.2446 14.2759 14.1217 14.2321 14.955 14.1005C14.9111 15.0214 14.8673 16.0739 14.8234 17.3019C12.8938 17.7843 11.2712 19.1876 11.2712 20.8541C11.2712 22.2136 11.9729 23.88 14.7795 24.3624C14.5164 30.8529 13.5078 33.2649 11.2712 34.1858C10.8765 34.3174 10.6134 34.5805 10.6134 34.9752ZM13.2008 20.8541C13.2008 20.1963 13.9025 19.4069 14.7795 19.1876C14.7795 19.67 14.7357 22.1259 14.7357 22.5644C13.7709 22.389 13.2008 21.8627 13.2008 20.8541ZM16.753 18.9683C17.9809 19.0999 19.3843 19.8016 20.4368 20.9418C19.2966 21.9066 17.8494 22.6521 16.6653 22.696C16.6653 22.0382 16.7091 21.1172 16.7091 20.4594L16.753 18.9683ZM20.3929 6.38211C21.0946 6.38211 21.4016 6.95222 21.4016 7.65389C21.4016 9.10109 19.6474 10.8114 17.06 11.7324C17.6301 8.35556 18.9457 6.38211 20.3929 6.38211Z" fill="white"/>
<path d="M39.731 19.7577C39.2048 19.6262 38.6347 19.9331 38.547 20.4594C37.2313 25.6781 36.5735 33.3088 36.5735 33.8789C36.5735 34.449 37.012 34.8875 37.5822 34.8875C38.1084 34.8875 38.5031 34.4928 38.547 33.9666C38.8101 29.8004 39.6433 24.0993 40.4327 20.9418C40.4766 20.8541 40.4766 20.7664 40.4766 20.7225C40.4766 20.284 40.1696 19.8893 39.731 19.7577Z" fill="white"/>
<path d="M48.4649 34.6682C49.7806 34.6682 50.9208 34.142 51.8856 33.1772C54.8677 30.1951 55.8763 23.2661 55.964 17.6527C56.578 17.7843 57.1481 17.8281 57.6744 17.8281C57.9813 17.8281 58.4637 17.3896 58.4637 16.9072C58.4637 16.3809 58.1568 16.1178 57.6305 16.0301C57.0604 15.9862 56.4903 15.8985 56.0079 15.8108C56.0517 14.8899 55.8763 9.80276 53.5959 7.61003C52.8504 6.86451 51.9294 6.51367 51.0523 6.51367C48.8158 6.51367 47.5001 8.57483 47.5001 10.5044C47.5001 13.662 50.3507 16.3809 54.0344 17.3457C53.9467 25.3272 52.1925 32.8702 48.5088 32.8702C46.7107 32.8702 45.5267 30.8091 45.5267 27.8269C45.5267 24.5817 47.237 21.2926 49.5174 21.2926C50.1752 21.2926 50.7454 21.5996 50.9646 21.9504C51.14 22.2574 51.4909 22.4328 51.7979 22.4328C52.3241 22.4328 52.7627 21.9943 52.7627 21.468C52.7627 20.6348 51.3593 19.3192 49.5174 19.3192C45.8775 19.3192 43.5971 23.7485 43.5971 27.8269C43.5971 32.037 45.7459 34.6682 48.4649 34.6682ZM50.9646 8.35556C52.1048 8.35556 54.0783 10.1536 54.0783 15.4161C51.447 14.7145 49.4736 12.6533 49.4736 10.4606C49.4736 9.58349 49.956 8.35556 50.9646 8.35556Z" fill="white"/>
<path d="M67.4909 19.7577C67.2716 19.8893 66.7892 19.977 66.1753 19.977C65.8244 19.977 64.8158 19.8454 63.8071 19.7139C62.7985 19.5823 61.8337 19.4507 61.4828 19.4507C59.2024 19.4507 58.5007 20.9418 58.5007 21.3803C58.5007 21.9066 58.9831 22.3451 59.5094 22.3451C59.8602 22.3451 60.2111 22.1697 60.3865 21.775C60.518 21.5119 60.6935 21.2926 61.4828 21.2926C62.1407 21.2926 65.3859 21.7312 66.263 21.7312C65.2543 22.8714 63.8071 24.5817 62.93 25.8096C61.4828 27.8708 60.0356 29.8881 57.4044 32.6071C57.2728 32.7825 57.1851 33.0018 57.1851 33.3088C57.1851 33.7912 57.6236 34.2297 58.1499 34.2297C58.3253 34.2297 58.4569 34.2297 58.5007 34.1858C59.5971 33.835 60.6058 33.7034 61.6144 33.7034C62.8423 33.7034 63.9825 33.9227 65.0789 34.142C65.956 34.2736 66.7892 34.449 67.5786 34.449C69.5082 34.449 70.9116 33.4403 70.9116 31.5546C70.9116 31.0722 70.78 30.1512 69.8152 30.3705C69.2889 30.4144 68.982 30.8091 68.982 31.3353C68.982 32.1685 68.9381 32.6509 67.5786 32.6509C66.9647 32.6509 66.2191 32.5194 65.3859 32.344C64.0264 32.0808 61.6583 31.8616 60.0356 32.1685C61.0004 31.2476 63.3686 28.4409 64.4649 26.906C65.7367 25.108 67.0524 23.3099 69.1135 21.0734C69.2451 20.8541 69.3328 20.6348 69.3328 20.3717C69.3328 20.2401 69.2889 19.4069 68.2364 19.4069C67.9733 19.4069 67.754 19.4946 67.6225 19.6262L67.4909 19.7577Z" fill="white"/>
<path d="M76.2152 20.5032C76.2152 19.9331 75.7767 19.4946 75.2504 19.4946C74.4172 19.4946 74.2856 20.1963 74.1979 20.5032C73.8909 22.1259 73.2331 25.4588 73.2331 28.4848C73.2331 31.5546 74.154 34.4928 76.873 34.4928C79.0219 34.4928 81.3462 31.9493 82.4425 28.8795C82.1794 31.5546 81.5216 35.1068 80.8199 37.2995C80.0305 37.0364 79.0219 36.9048 78.0132 36.9048C73.4085 36.9048 67.7513 39.7554 67.7513 44.2724C67.7513 46.9475 69.6809 48 71.8298 48C75.7328 48 80.0305 44.8425 81.9601 39.8869C82.3548 40.0623 83.3196 40.7202 83.3196 41.9481C83.3196 42.4743 83.7143 42.9129 84.2406 42.9129C84.7668 42.9129 85.2054 42.4743 85.2054 41.9481C85.2054 40.2816 84.109 38.8344 82.6618 38.0012C83.802 34.2297 84.109 30.6336 84.2406 28.7917C84.3721 26.7306 84.6791 22.4328 84.6791 20.4594C84.6791 19.9331 84.3283 19.4946 83.802 19.4946C83.2758 19.4946 82.7934 19.8893 82.7934 20.4155C82.8372 25.7219 79.5481 32.5632 76.873 32.5632C75.382 32.5632 75.2066 29.7565 75.2066 28.4848C75.2066 25.6781 75.8205 22.5644 76.1713 20.6787L76.2152 20.5032ZM72.0929 46.202C70.9088 46.202 69.7247 45.5442 69.7247 44.1408C69.7247 41.0271 74.3733 38.7029 78.0132 38.7029C78.7588 38.7029 79.6797 38.7906 80.2937 38.966C78.5833 43.3514 75.1188 46.202 72.0929 46.202Z" fill="white"/>
<path d="M10.6134 34.9752C10.6134 35.5015 11.1396 35.8962 11.622 35.8962C11.7974 35.8962 11.8852 35.8523 12.0167 35.8085C15.7882 34.756 16.446 30.1951 16.7091 24.494C18.4633 24.3624 20.0859 23.4415 21.6208 22.2136C21.884 22.5644 22.1471 23.003 22.4541 23.3976L23.1119 24.494C26.6641 30.0197 31.6635 38.9221 37.4962 38.9221C38.5048 38.9221 39.8643 38.8344 39.8643 37.5188C39.8643 36.9925 39.4696 36.9048 39.0749 36.9048C38.7679 36.9048 38.3294 37.0364 37.54 37.0364C32.7599 37.0364 28.0236 28.6163 24.7784 23.4415C24.4714 22.9152 23.375 21.4242 22.9803 20.9856C24.9538 19.0122 26.8395 16.5563 28.3306 14.4952C29.2515 13.2234 30.2602 12.1709 30.8741 11.5131C31.7074 10.636 32.8037 9.89047 33.33 9.89047C33.8562 9.89047 34.2948 9.53963 34.2948 8.96952C34.2948 8.44327 33.8562 8.04858 33.33 8.04858C31.9705 8.04858 30.3917 9.14494 29.4708 10.1536C28.7691 10.943 27.9359 11.8639 26.7957 13.355C25.3485 15.2407 23.6381 17.8281 21.7086 19.67C20.1298 18.2667 18.5949 17.3457 16.753 17.1703C16.753 16.0739 16.7969 14.7145 16.8846 13.662C20.8753 12.5656 23.3312 10.1536 23.3312 7.65389C23.3312 6.07513 22.3225 4.62793 20.4368 4.62793C18.1563 4.62793 15.7882 6.64524 15.1304 12.2586C14.2533 12.434 13.3324 12.5217 12.3237 12.5217C9.16617 12.5217 7.06116 10.7676 6.9296 8.18014C6.88574 7.65389 6.49105 7.30305 5.9648 7.30305C5.43854 7.30305 5 7.69774 5 8.26785C5 10.5483 6.88574 14.2759 12.3237 14.2759C13.2446 14.2759 14.1217 14.2321 14.955 14.1005C14.9111 15.0214 14.8673 16.0739 14.8234 17.3019C12.8938 17.7843 11.2712 19.1876 11.2712 20.8541C11.2712 22.2136 11.9729 23.88 14.7795 24.3624C14.5164 30.8529 13.5078 33.2649 11.2712 34.1858C10.8765 34.3174 10.6134 34.5805 10.6134 34.9752ZM13.2008 20.8541C13.2008 20.1963 13.9025 19.4069 14.7795 19.1876C14.7795 19.67 14.7357 22.1259 14.7357 22.5644C13.7709 22.389 13.2008 21.8627 13.2008 20.8541ZM16.753 18.9683C17.9809 19.0999 19.3843 19.8016 20.4368 20.9418C19.2966 21.9066 17.8494 22.6521 16.6653 22.696C16.6653 22.0382 16.7091 21.1172 16.7091 20.4594L16.753 18.9683ZM20.3929 6.38211C21.0946 6.38211 21.4016 6.95222 21.4016 7.65389C21.4016 9.10109 19.6474 10.8114 17.06 11.7324C17.6301 8.35556 18.9457 6.38211 20.3929 6.38211Z" stroke="white" stroke-width="0.4" mask="url(#path-1-outside-1)"/>
<path d="M39.731 19.7577C39.2048 19.6262 38.6347 19.9331 38.547 20.4594C37.2313 25.6781 36.5735 33.3088 36.5735 33.8789C36.5735 34.449 37.012 34.8875 37.5822 34.8875C38.1084 34.8875 38.5031 34.4928 38.547 33.9666C38.8101 29.8004 39.6433 24.0993 40.4327 20.9418C40.4766 20.8541 40.4766 20.7664 40.4766 20.7225C40.4766 20.284 40.1696 19.8893 39.731 19.7577Z" stroke="white" stroke-width="0.4" mask="url(#path-1-outside-1)"/>
<path d="M48.4649 34.6682C49.7806 34.6682 50.9208 34.142 51.8856 33.1772C54.8677 30.1951 55.8763 23.2661 55.964 17.6527C56.578 17.7843 57.1481 17.8281 57.6744 17.8281C57.9813 17.8281 58.4637 17.3896 58.4637 16.9072C58.4637 16.3809 58.1568 16.1178 57.6305 16.0301C57.0604 15.9862 56.4903 15.8985 56.0079 15.8108C56.0517 14.8899 55.8763 9.80276 53.5959 7.61003C52.8504 6.86451 51.9294 6.51367 51.0523 6.51367C48.8158 6.51367 47.5001 8.57483 47.5001 10.5044C47.5001 13.662 50.3507 16.3809 54.0344 17.3457C53.9467 25.3272 52.1925 32.8702 48.5088 32.8702C46.7107 32.8702 45.5267 30.8091 45.5267 27.8269C45.5267 24.5817 47.237 21.2926 49.5174 21.2926C50.1752 21.2926 50.7454 21.5996 50.9646 21.9504C51.14 22.2574 51.4909 22.4328 51.7979 22.4328C52.3241 22.4328 52.7627 21.9943 52.7627 21.468C52.7627 20.6348 51.3593 19.3192 49.5174 19.3192C45.8775 19.3192 43.5971 23.7485 43.5971 27.8269C43.5971 32.037 45.7459 34.6682 48.4649 34.6682ZM50.9646 8.35556C52.1048 8.35556 54.0783 10.1536 54.0783 15.4161C51.447 14.7145 49.4736 12.6533 49.4736 10.4606C49.4736 9.58349 49.956 8.35556 50.9646 8.35556Z" stroke="white" stroke-width="0.4" mask="url(#path-1-outside-1)"/>
<path d="M67.4909 19.7577C67.2716 19.8893 66.7892 19.977 66.1753 19.977C65.8244 19.977 64.8158 19.8454 63.8071 19.7139C62.7985 19.5823 61.8337 19.4507 61.4828 19.4507C59.2024 19.4507 58.5007 20.9418 58.5007 21.3803C58.5007 21.9066 58.9831 22.3451 59.5094 22.3451C59.8602 22.3451 60.2111 22.1697 60.3865 21.775C60.518 21.5119 60.6935 21.2926 61.4828 21.2926C62.1407 21.2926 65.3859 21.7312 66.263 21.7312C65.2543 22.8714 63.8071 24.5817 62.93 25.8096C61.4828 27.8708 60.0356 29.8881 57.4044 32.6071C57.2728 32.7825 57.1851 33.0018 57.1851 33.3088C57.1851 33.7912 57.6236 34.2297 58.1499 34.2297C58.3253 34.2297 58.4569 34.2297 58.5007 34.1858C59.5971 33.835 60.6058 33.7034 61.6144 33.7034C62.8423 33.7034 63.9825 33.9227 65.0789 34.142C65.956 34.2736 66.7892 34.449 67.5786 34.449C69.5082 34.449 70.9116 33.4403 70.9116 31.5546C70.9116 31.0722 70.78 30.1512 69.8152 30.3705C69.2889 30.4144 68.982 30.8091 68.982 31.3353C68.982 32.1685 68.9381 32.6509 67.5786 32.6509C66.9647 32.6509 66.2191 32.5194 65.3859 32.344C64.0264 32.0808 61.6583 31.8616 60.0356 32.1685C61.0004 31.2476 63.3686 28.4409 64.4649 26.906C65.7367 25.108 67.0524 23.3099 69.1135 21.0734C69.2451 20.8541 69.3328 20.6348 69.3328 20.3717C69.3328 20.2401 69.2889 19.4069 68.2364 19.4069C67.9733 19.4069 67.754 19.4946 67.6225 19.6262L67.4909 19.7577Z" stroke="white" stroke-width="0.4" mask="url(#path-1-outside-1)"/>
<path d="M76.2152 20.5032C76.2152 19.9331 75.7767 19.4946 75.2504 19.4946C74.4172 19.4946 74.2856 20.1963 74.1979 20.5032C73.8909 22.1259 73.2331 25.4588 73.2331 28.4848C73.2331 31.5546 74.154 34.4928 76.873 34.4928C79.0219 34.4928 81.3462 31.9493 82.4425 28.8795C82.1794 31.5546 81.5216 35.1068 80.8199 37.2995C80.0305 37.0364 79.0219 36.9048 78.0132 36.9048C73.4085 36.9048 67.7513 39.7554 67.7513 44.2724C67.7513 46.9475 69.6809 48 71.8298 48C75.7328 48 80.0305 44.8425 81.9601 39.8869C82.3548 40.0623 83.3196 40.7202 83.3196 41.9481C83.3196 42.4743 83.7143 42.9129 84.2406 42.9129C84.7668 42.9129 85.2054 42.4743 85.2054 41.9481C85.2054 40.2816 84.109 38.8344 82.6618 38.0012C83.802 34.2297 84.109 30.6336 84.2406 28.7917C84.3721 26.7306 84.6791 22.4328 84.6791 20.4594C84.6791 19.9331 84.3283 19.4946 83.802 19.4946C83.2758 19.4946 82.7934 19.8893 82.7934 20.4155C82.8372 25.7219 79.5481 32.5632 76.873 32.5632C75.382 32.5632 75.2066 29.7565 75.2066 28.4848C75.2066 25.6781 75.8205 22.5644 76.1713 20.6787L76.2152 20.5032ZM72.0929 46.202C70.9088 46.202 69.7247 45.5442 69.7247 44.1408C69.7247 41.0271 74.3733 38.7029 78.0132 38.7029C78.7588 38.7029 79.6797 38.7906 80.2937 38.966C78.5833 43.3514 75.1188 46.202 72.0929 46.202Z" stroke="white" stroke-width="0.4" mask="url(#path-1-outside-1)"/>
</g>
<g filter="url(#filter1_d)">
<path d="M40 12L37.601 9.95386L38.0498 12.9635L35.357 14.4683L38.0498 14.9699V18.4811L40 15.5L43.8843 15.9731L41 13.5L43.5 10.5L40 12Z" fill="#FEDA00"/>
</g>
<defs>
<filter id="filter0_d" x="0.799988" y="0.427979" width="88.6054" height="51.7721" filterUnits="userSpaceOnUse" color-interpolation-filters="sRGB">
<feFlood flood-opacity="0" result="BackgroundImageFix"/>
<feColorMatrix in="SourceAlpha" type="matrix" values="0 0 0 0 0 0 0 0 0 0 0 0 0 0 0 0 0 0 127 0"/>
<feOffset/>
<feGaussianBlur stdDeviation="2"/>
<feColorMatrix type="matrix" values="0 0 0 0 0 0 0 0 0 0 0 0 0 0 0 0 0 0 0.25 0"/>
<feBlend mode="normal" in2="BackgroundImageFix" result="effect1_dropShadow"/>
<feBlend mode="normal" in="SourceGraphic" in2="effect1_dropShadow" result="shape"/>
</filter>
<filter id="filter1_d" x="31.357" y="5.95386" width="16.5273" height="16.5273" filterUnits="userSpaceOnUse" color-interpolation-filters="sRGB">
<feFlood flood-opacity="0" result="BackgroundImageFix"/>
<feColorMatrix in="SourceAlpha" type="matrix" values="0 0 0 0 0 0 0 0 0 0 0 0 0 0 0 0 0 0 127 0"/>
<feOffset/>
<feGaussianBlur stdDeviation="2"/>
<feColorMatrix type="matrix" values="0 0 0 0 0 0 0 0 0 0 0 0 0 0 0 0 0 0 0.26 0"/>
<feBlend mode="normal" in2="BackgroundImageFix" result="effect1_dropShadow"/>
<feBlend mode="normal" in="SourceGraphic" in2="effect1_dropShadow" result="shape"/>
</filter>
</defs>
</svg>
